<?xml version="1.0" standalone="no"?><!DOCTYPE svg PUBLIC "-//W3C//DTD SVG 1.1//EN" "http://www.w3.org/Graphics/SVG/1.1/DTD/svg11.dtd"><svg t="1635438001644" class="icon" viewBox="0 0 1024 1024" version="1.1" xmlns="http://www.w3.org/2000/svg" p-id="5215" xmlns:xlink="http://www.w3.org/1999/xlink" width="16" height="16"><defs><style type="text/css"></style></defs><path d="M903.396 188.871v532.48H120.604v-532.48h782.792m52.337-52.338H68.267V773.69h887.466V136.533zM250.993 835.13h522.013v52.338H250.994z" fill="#707070" p-id="5216"></path><path d="M485.831 743.765h52.338v91.023H485.83zM422.23 393.671a61.44 61.44 0 1 1-61.44 61.44 61.44 61.44 0 0 1 61.44-61.44m0-52.338a113.778 113.778 0 1 0 113.778 113.778A113.778 113.778 0 0 0 422.23 341.333z" fill="#707070" p-id="5217"></path><path d="M522.126 428.942h193.422v52.338H522.126z" fill="#707070" p-id="5218"></path><path d="M615.652 375.467h52.337v68.266h-52.337z" fill="#707070" p-id="5219"></path></svg>